<?xml version="1.0" encoding="utf-8"?>
<!-- Generator: Adobe Illustrator 23.0.6, SVG Export Plug-In . SVG Version: 6.00 Build 0)  -->
<svg version="1.1" id="Layer_1" xmlns="http://www.w3.org/2000/svg" xmlns:xlink="http://www.w3.org/1999/xlink" x="0px" y="0px"
	 viewBox="0 0 250 250" style="enable-background:new 0 0 250 250;" xml:space="preserve">
<style type="text/css">
	.st0{fill:#FBEFAB;}
</style>
<path class="st0" d="M51.631,148.956H27.162c-1.444,0-2.614-1.171-2.614-2.614v-43.146c0-1.443,1.17-2.614,2.614-2.614h24.469
	c1.444,0,2.614,1.171,2.614,2.614v43.146C54.245,147.786,53.075,148.956,51.631,148.956z M29.775,143.729h19.242V105.81H29.775
	V143.729z"/>
<path class="st0" d="M175.387,192.1c-0.289,0-0.58-0.048-0.86-0.146L50.771,148.81c-1.05-0.366-1.753-1.356-1.753-2.467v-43.146
	c0-1.126,0.721-2.125,1.79-2.481l123.756-41.111c0.794-0.264,1.669-0.131,2.353,0.361c0.681,0.492,1.084,1.281,1.084,2.12v127.401
	c0,0.846-0.41,1.64-1.1,2.13C176.452,191.935,175.922,192.1,175.387,192.1z M54.245,144.486l118.529,41.322V65.709L54.245,105.082
	V144.486z"/>
<path class="st0" d="M116.769,192.216c-0.962,0-1.959-0.172-2.953-0.519l-37.62-13.114c-4.767-1.661-8.5-6.917-8.5-11.966v-13.764
	h5.227v13.764c0,2.818,2.334,6.104,4.993,7.031l37.621,13.114c0.973,0.335,1.823,0.305,2.392-0.1
	c0.568-0.403,0.882-1.193,0.882-2.224v-13.764h5.227v13.764c0,2.731-1.123,5.095-3.082,6.487
	C119.751,191.779,118.304,192.216,116.769,192.216z"/>
<path class="st0" d="M185.038,200.09c-6.763,0-12.265-5.501-12.265-12.265V63.747c0-6.764,5.502-12.265,12.265-12.265
	c6.763,0,12.265,5.501,12.265,12.265v124.078C197.303,194.588,191.801,200.09,185.038,200.09z M185.038,56.709
	c-3.881,0-7.038,3.156-7.038,7.038v124.078c0,3.881,3.157,7.038,7.038,7.038c3.88,0,7.038-3.157,7.038-7.038V63.747
	C192.076,59.865,188.919,56.709,185.038,56.709z"/>
<path class="st0" d="M236.722,128.401h-20.458c-1.381,0-2.5-1.119-2.5-2.5v-0.227c0-1.381,1.119-2.5,2.5-2.5h20.458
	c1.381,0,2.5,1.119,2.5,2.5v0.227C239.222,127.282,238.103,128.401,236.722,128.401z"/>
<path class="st0" d="M208.373,100.924l-0.16-0.16c-0.976-0.976-0.976-2.559,0-3.536l14.466-14.466c0.976-0.976,2.559-0.976,3.535,0
	l0.16,0.16c0.976,0.976,0.976,2.559,0,3.536l-14.466,14.466C210.932,101.9,209.349,101.9,208.373,100.924z"/>
<path class="st0" d="M222.678,168.809l-14.466-14.464c-0.976-0.976-0.976-2.559,0-3.536l0.16-0.16c0.976-0.976,2.559-0.976,3.535,0
	l14.466,14.464c0.976,0.976,0.976,2.559,0,3.536l-0.16,0.16C225.237,169.785,223.654,169.786,222.678,168.809z"/>
<g>
</g>
<g>
</g>
<g>
</g>
<g>
</g>
<g>
</g>
<g>
</g>
</svg>
