<?xml version="1.0" encoding="utf-8"?>
<!-- Generator: Adobe Illustrator 23.0.6, SVG Export Plug-In . SVG Version: 6.00 Build 0)  -->
<svg version="1.1" id="Layer_1" xmlns="http://www.w3.org/2000/svg" xmlns:xlink="http://www.w3.org/1999/xlink" x="0px" y="0px"
	 viewBox="0 0 250 250" style="enable-background:new 0 0 250 250;" xml:space="preserve">
<style type="text/css">
	.st0{fill:#FBEFAB;}
</style>
<path class="st0" d="M222.702,137.147c0-24.52-19.951-44.468-44.473-44.468c-24.518,0-44.465,19.948-44.465,44.468
	c0,23.991,29.96,59.344,39.752,70.26H68.784c-10.181,0-18.463-8.571-18.463-18.75s8.282-18.606,18.463-18.606l37.997-0.392
	c10.467,0,18.998-8.14,18.998-18.625c0-10.486-8.531-18.627-19.019-18.627H90.863c-5.085,0-9.247-4.266-9.855-9.191
	c3.677-3.943,32.053-35.251,32.053-55.695c0-18.811-15.305-34.222-34.117-34.222c-18.81,0-34.114,15.251-34.114,34.062
	c0,19.511,25.85,49.292,31.406,55.347c0.276,7.84,6.722,14.699,14.626,14.699h15.898c7.91,0,14.344,5.845,14.344,13.754
	c0,7.908-6.435,14.046-14.344,14.046l-37.997,0.172c-12.739,0-23.118,10.756-23.118,23.514s10.38,23.514,23.138,23.514h110v-1.093
	c0.428-0.107,0.833-0.29,1.142-0.616C181.673,208.854,222.702,165.21,222.702,137.147z M78.945,118.111
	c-6.503-7.234-29.44-33.95-29.44-50.804c0-16.234,13.206-29.441,29.439-29.441c16.235,0,29.443,13.207,29.443,29.441
	C108.387,84.172,85.448,110.88,78.945,118.111z M178.229,97.353c21.945,0,39.798,17.851,39.798,39.793
	c0,23.14-31.995,59.876-39.797,68.49c-7.802-8.617-39.791-45.363-39.791-68.49C138.439,115.205,156.289,97.353,178.229,97.353z"/>
<path class="st0" d="M201.117,137.145c0-12.658-10.298-22.955-22.957-22.955c-12.658,0-22.957,10.297-22.957,22.955
	c0,12.659,10.298,22.958,22.957,22.958C190.819,160.103,201.117,149.804,201.117,137.145z M178.161,155.429
	c-10.081,0-18.282-8.202-18.282-18.284c0-10.08,8.201-18.28,18.282-18.28s18.282,8.201,18.282,18.28
	C196.443,147.226,188.241,155.429,178.161,155.429z"/>
<path class="st0" d="M78.89,51.504c-8.712,0-15.799,7.088-15.799,15.802c0,8.715,7.087,15.805,15.799,15.805
	c8.715,0,15.804-7.09,15.804-15.805C94.695,58.592,87.605,51.504,78.89,51.504z M78.89,78.435c-6.133,0-11.124-4.993-11.124-11.13
	c0-6.136,4.991-11.127,11.124-11.127c6.136,0,11.13,4.991,11.13,11.127C90.02,73.443,85.027,78.435,78.89,78.435z"/>
<g>
</g>
<g>
</g>
<g>
</g>
<g>
</g>
<g>
</g>
<g>
</g>
</svg>
