<?xml version="1.0" encoding="utf-8"?>
<!-- Generator: Adobe Illustrator 23.0.6, SVG Export Plug-In . SVG Version: 6.00 Build 0)  -->
<svg version="1.1" id="Layer_1" xmlns="http://www.w3.org/2000/svg" xmlns:xlink="http://www.w3.org/1999/xlink" x="0px" y="0px"
	 viewBox="0 0 250 250" style="enable-background:new 0 0 250 250;" xml:space="preserve">
<style type="text/css">
	.st0{fill:#FBEFAB;}
</style>
<path class="st0" d="M147.045,87.798h-14.881V75.459c5-3.451,11.347-10.181,11.347-17.902c0-11.222-8.787-20.352-20.007-20.352
	c-11.223,0-21.1,9.13-21.1,20.352c0,7.654,4.76,14.329,9.76,17.806v12.435h-11.71c-2.161,0-3.869,0.663-3.717,2.819l4.76,68.131
	c0.138,1.952,1.761,4.049,3.717,4.049h9.45v11.733c-5,3.091-6.757,7.622-6.444,13.091c0.318,5.571,2.09,9.375,7.09,12.903
	l0.025,14.301c0,0.844,1.233,2.068,1.791,2.589c2.314,2.163,3.532,2.656,6.289,2.656c2.744,0,3.922-0.645,5.933-2.656
	c0.521-0.521,1.396-1.831,1.397-2.567l0.13-14.561c4.355-2.572,6.623-7.304,6.623-12.721c0-5.361-2.834-10.05-7.834-12.638v-12.13
	h12.092c1.945,0,3.563-2.665,3.715-4.605l5.289-66.962C150.93,89.065,149.218,87.798,147.045,87.798z M108.656,57.557
	c0-8.144,6.626-14.77,14.771-14.77c8.142,0,14.766,6.626,14.766,14.77c0,8.148-6.624,14.777-14.766,14.777
	C115.281,72.335,108.656,65.705,108.656,57.557z M117.164,77.47c2.5,0.289,3.633,0.447,5.081,0.447c1.39,0,2.419-0.142,4.919-0.409
	v10.29h-10V77.47z M124.664,212.332c0,0-0.421,2.349-2.422,2.349c-1.844,0-2.578-2.5-2.578-2.5v-10.234
	c0,0.054,2.533,0.396,3.06,0.396c0.641,0,1.94-0.055,1.94-0.135V212.332z M123.428,196.635c-4.998,0-9.064-4.068-9.064-9.068
	c0-4.997,4.066-9.063,9.064-9.063c4.996,0,9.061,4.066,9.061,9.063C132.489,192.567,128.424,196.635,123.428,196.635z
	 M124.664,172.945c-2.5-0.087-2.165-0.148-2.837-0.148c-0.44,0-2.163,0.028-2.163,0.066v-10.065h5V172.945z M145.525,96.334
	l-4.026,56.828c-0.137,1.952-0.621,4.636-2.578,4.636h-30.156c-1.967,0-2.82-3.371-2.944-5.335l-3.623-56.243
	c-0.135-2.146,0.108-2.472,2.218-2.55l38.594-0.151C145.432,93.519,145.676,94.179,145.525,96.334z"/>
<path class="st0" d="M133.636,118.168c0.107-1.799,1.375-3.187,2.832-3.1c1.456,0.087,2.551,1.616,2.443,3.414l-1.747,29.316
	c-0.107,1.799-1.375,3.187-2.832,3.1c-1.456-0.087-2.551-1.616-2.443-3.414"/>
<g>
</g>
<g>
</g>
<g>
</g>
<g>
</g>
<g>
</g>
<g>
</g>
</svg>
