<?xml version="1.0" encoding="utf-8"?>
<!-- Generator: Adobe Illustrator 23.1.1, SVG Export Plug-In . SVG Version: 6.00 Build 0)  -->
<svg version="1.1" id="Layer_1" xmlns="http://www.w3.org/2000/svg" xmlns:xlink="http://www.w3.org/1999/xlink" x="0px" y="0px"
	 viewBox="0 0 250 250" style="enable-background:new 0 0 250 250;" xml:space="preserve">
<style type="text/css">
	.st0{fill:#2B2B2B;}
	.st1{fill:none;}
</style>
<path class="st0" d="M183.2,80.8c0.2,3.5-2.2,32.5-2.1,31.2l24.5-2.5c0.7-0.2,0.9-1.1,1.7-3c0.7-1.7,4-11.8,0.7-23.8
	c-4.4-15.8-11.7-22.4-11.7-22.4c-1-1-2.9,0.3-5.7,1.5c-1.3,0.6-3.1,1.5-8.2,3.8C181.3,66.8,182.9,76.3,183.2,80.8z M194.2,64.3
	c4.8,5.9,7.1,11.1,9.1,18.2c2.9,10.5,1.8,16.7-0.2,22.9l-18.1,2.1c-0.2-24.2,0.3-38.7,1-39.1C193.1,65.2,194.1,64.3,194.2,64.3z"/>
<path class="st0" d="M96.3,81.5C96,76.2,97.5,55,97.1,56.8L48.5,45.5c-1.4-0.2-4.2,0.1-6,2.8c-1.3,2-6.3,15.8-6.3,34.8
	c0,12.1,2,24,6,35.3l0.3,0.8l0.7,0.5c0.3,0.2,2.9,2.2,6.1,1.1c1.5-0.5,29-7,44.4-10.7C94.9,108.9,96.6,86.2,96.3,81.5z M46.9,116.2
	c-0.1,0-0.1,0-0.2,0c-3.6-10.6-5.4-21.7-5.4-33.1c0-18.3,4.8-31.2,5.5-32.7l50.4,11.7c4.4,28-1,42.5-1.9,42.7
	C87.1,106.8,48.7,115.6,46.9,116.2z"/>
<path class="st0" d="M81.4,82.3c0-6.3,1.6-11.9,4-15.6c1-1.5,0.3-3.5-1.5-3.8c-5.7-1.1-13.2-2.7-22.3-4.7c-1.3-0.3-2.5,0.4-2.9,1.7
	c-0.9,2.8-3.3,7.5-8.7,8.9c-0.8,0.2-1.5,0.8-1.8,1.6c-0.7,1.9-1.7,5.9-1.7,11.6c0,3.7,0.5,8.1,1.8,13.1c0.2,0.9,1,1.6,1.9,1.8
	c2.4,0.5,7.1,2.4,8.6,8.6c0.3,1.3,1.6,2.2,3,2l22.8-4.6c1.8-0.4,2.6-2.5,1.4-4C83.2,95,81.4,89,81.4,82.3z M53.4,93.2
	c-0.8-0.3-1.3-1-1.5-1.7c-0.7-3.3-1.1-6.5-1.1-9.6c0-3.4,0.4-6.2,0.9-8c0.2-0.8,0.8-1.4,1.6-1.7c4.1-1.7,6.5-4.8,8-7.6
	c0.5-1,1.6-1.5,2.7-1.3c4.7,1.1,9.3,2,13.7,2.9c1.5,0.3,2.3,1.9,1.8,3.3c-1.5,3.7-2.3,8.2-2.3,12.9c0,5.2,1,9.9,2.7,13.8
	c0.6,1.4-0.2,3.1-1.7,3.4l-13.6,2.8c-1.1,0.2-2.2-0.3-2.7-1.3C59.8,96.6,56.4,94.3,53.4,93.2z"/>
<line class="st1" x1="183" y1="64.4" x2="183" y2="59"/>
<line class="st1" x1="183.3" y1="83.2" x2="183.3" y2="77.8"/>
<line class="st1" x1="183.3" y1="83.2" x2="183.3" y2="77.8"/>
<line class="st1" x1="183.2" y1="102.1" x2="183.2" y2="96.7"/>
<path class="st0" d="M100.5,216.8h-5.4v-69.9l-21.6-17.8c-0.1-0.1-0.3-0.2-0.4-0.4c-2.7-2.6-4.2-6.1-4.2-9.7v-7.6h5.4v7.6
	c0,2.3,1,4.4,2.7,6c0.1,0.1,0.1,0.1,0.2,0.2l22.2,18.4c0.6,0.5,1,1.3,1,2.1V216.8z"/>
<path class="st0" d="M161.2,216.8h-5.4v-71.9c0-0.9,0.4-1.7,1.2-2.2c3.2-2.2,19.4-13.6,23.5-28.6V63.7c0-4.5-3.6-8.1-8.1-8.1
	c-4.5,0-8.1,3.6-8.1,8.1v20.2c0,1.5-1.2,2.7-2.7,2.7c-1.5,0-2.7-1.2-2.7-2.7V59.4c0-4.5-3.6-8.1-8.1-8.1c-4.5,0-8.1,3.6-8.1,8.1
	v24.5c0,1.5-1.2,2.7-2.7,2.7s-2.7-1.2-2.7-2.7V59.4c0-4.5-3.6-8.1-8.1-8.1c-4.5,0-8.1,3.6-8.1,8.1v24.5c0,1.5-1.2,2.7-2.7,2.7
	s-2.7-1.2-2.7-2.7V59c0-4.5-3.6-8.1-8.1-8.1s-8.1,3.6-8.1,8.1l0.2,46c0.1,1.7-1.1,4-3.2,4.6l-7,1.6l1.3-4.9l3.4-1V59
	c0-7.4,6-13.5,13.5-13.5c4.5,0,8.5,2.2,10.9,5.6c2.5-3.2,6.3-5.2,10.7-5.2c4.4,0,8.3,2.1,10.8,5.4c2.5-3.3,6.4-5.4,10.8-5.4
	c5.5,0,10.3,3.3,12.3,8.1c2.4-2.3,5.7-3.7,9.3-3.7c7.4,0,13.5,6,13.5,13.5v50.6c0,0.2,0,0.5-0.1,0.7c-4,15.6-19.3,27.5-24.6,31.3
	L161.2,216.8L161.2,216.8z"/>
<path class="st0" d="M182.9,81.2c3.4-3,7.5-4.4,7.5-4.4c0.8-0.5,1.2-2.1,0.4-3.2c-0.9-1-2.4-1.2-3.6-0.6c0,0-3,1-5.2,3.2
	C181.3,76.9,182.2,81.8,182.9,81.2z"/>
<path class="st0" d="M197.9,100.9c1.9-0.4,2.6-1.2,2.7-2.5c0.1-1.4-1.5-2.6-2.1-2.4c0,0-8,1.2-14.1,0.8c-1.3-0.1-2,4.6,0.3,4.7
	C189.5,101.7,197.9,100.9,197.9,100.9z"/>
</svg>
