<?xml version="1.0" encoding="utf-8"?>
<!-- Generator: Adobe Illustrator 23.0.6, SVG Export Plug-In . SVG Version: 6.00 Build 0)  -->
<svg version="1.1" id="Layer_1" xmlns="http://www.w3.org/2000/svg" xmlns:xlink="http://www.w3.org/1999/xlink" x="0px" y="0px"
	 viewBox="0 0 250 250" style="enable-background:new 0 0 250 250;" xml:space="preserve">
<style type="text/css">
	.st0{fill:#FBEFAB;}
</style>
<path class="st0" d="M183.157,80.817c0.162,3.474-2.176,32.485-2.083,31.25l24.505-2.526c0.703-0.156,0.898-1.094,1.667-3.02
	c0.69-1.729,4.036-11.811,0.706-23.797c-4.378-15.761-11.672-22.358-11.672-22.358c-1.029-0.971-2.863,0.295-5.724,1.502
	c-1.32,0.556-3.128,1.502-8.233,3.794C181.332,66.849,182.948,76.338,183.157,80.817z M194.172,64.307
	c4.804,5.886,7.077,11.053,9.062,18.203c2.917,10.505,1.849,16.693-0.234,22.865l-18.125,2.135
	c-0.156-24.167,0.268-38.714,1.016-39.062C193.082,65.164,194.119,64.321,194.172,64.307z"/>
<path class="st0" d="M96.282,81.494c-0.312-5.312,1.25-26.458,0.864-24.673L48.483,45.546c-1.383-0.227-4.199,0.106-6.006,2.816
	c-1.338,2.006-6.312,15.817-6.312,34.821c0,12.129,2.015,24.023,5.987,35.347l0.276,0.786l0.65,0.518
	c0.283,0.23,2.883,2.203,6.149,1.115c1.467-0.461,29.002-6.993,44.385-10.663C94.915,108.933,96.557,86.171,96.282,81.494z
	 M46.851,116.22c-0.055,0.019-0.113,0.027-0.17,0.027c-3.578-10.616-5.393-21.731-5.393-33.067c0-18.344,4.793-31.151,5.513-32.723
	L97.16,62.13c4.409,28.006-1.042,42.473-1.895,42.686C87.072,106.767,48.726,115.595,46.851,116.22z"/>
<path class="st0" d="M81.368,82.274c0-6.267,1.563-11.87,4.019-15.581c0.988-1.493,0.265-3.496-1.492-3.837
	c-5.73-1.111-13.21-2.656-22.309-4.736c-1.253-0.287-2.516,0.435-2.928,1.653c-0.948,2.806-3.295,7.469-8.658,8.868
	c-0.831,0.217-1.52,0.767-1.793,1.581c-0.65,1.938-1.701,5.949-1.7,11.609c0,3.707,0.451,8.122,1.761,13.125
	c0.241,0.92,1.012,1.606,1.94,1.811c2.441,0.538,7.149,2.376,8.637,8.618c0.321,1.347,1.593,2.239,2.95,1.962l22.759-4.643
	c1.831-0.374,2.583-2.513,1.448-3.997C83.197,95.037,81.368,89.049,81.368,82.274z M53.375,93.192
	c-0.757-0.274-1.314-0.958-1.484-1.745c-0.704-3.267-1.06-6.481-1.06-9.593c0-3.435,0.441-6.166,0.885-8.045
	c0.19-0.803,0.787-1.402,1.552-1.711c4.09-1.652,6.541-4.803,7.984-7.623c0.508-0.993,1.618-1.512,2.706-1.268
	c4.729,1.061,9.301,2.04,13.688,2.931c1.493,0.303,2.309,1.86,1.751,3.277c-1.464,3.72-2.278,8.154-2.278,12.872
	c0,5.171,0.955,9.934,2.651,13.805c0.631,1.441-0.174,3.089-1.715,3.404l-13.634,2.781c-1.095,0.223-2.219-0.327-2.675-1.348
	C59.83,96.641,56.449,94.303,53.375,93.192z"/>
<line class="st0" x1="183.033" y1="64.36" x2="183.033" y2="58.997"/>
<line class="st0" x1="183.251" y1="83.213" x2="183.251" y2="77.85"/>
<line class="st0" x1="183.251" y1="83.213" x2="183.251" y2="77.85"/>
<line class="st0" x1="183.233" y1="102.066" x2="183.233" y2="96.702"/>
<path class="st0" d="M100.536,216.807h-5.363v-69.885l-21.555-17.829c-0.138-0.114-0.262-0.241-0.372-0.375
	c-2.663-2.552-4.182-6.064-4.182-9.702v-7.625h5.363v7.625c0,2.292,0.966,4.424,2.717,6.004c0.065,0.058,0.124,0.117,0.182,0.18
	l22.238,18.393c0.616,0.51,0.972,1.268,0.972,2.067V216.807z"/>
<path class="st0" d="M161.249,216.807h-5.363v-71.933c0-0.894,0.445-1.73,1.189-2.228c3.226-2.163,19.427-13.65,23.483-28.635
	v-50.27c0-4.47-3.638-8.106-8.11-8.106c-4.47,0-8.106,3.637-8.106,8.106v20.164c0,1.48-1.201,2.682-2.682,2.682
	c-1.48,0-2.708-1.201-2.708-2.682V59.36c0-4.471-3.637-8.108-8.108-8.108c-4.473,0-8.112,3.637-8.112,8.108v24.544
	c0,1.48-1.201,2.682-2.682,2.682s-2.706-1.201-2.706-2.682V59.36c0-4.471-3.637-8.108-8.108-8.108c-4.473,0-8.113,3.637-8.113,8.108
	v24.544c0,1.48-1.201,2.682-2.682,2.682s-2.708-1.201-2.708-2.682V58.99c0-4.471-3.637-8.108-8.108-8.108
	c-4.471,0-8.108,3.637-8.108,8.108l0.151,46.046c0.052,1.667-1.094,4.01-3.229,4.583l-6.979,1.604l1.302-4.885l3.392-0.99V58.99
	c0-7.429,6.043-13.471,13.472-13.471c4.501,0,8.494,2.219,10.942,5.62c2.467-3.191,6.332-5.25,10.669-5.25
	c4.417,0,8.344,2.137,10.802,5.43c2.46-3.293,6.388-5.43,10.805-5.43c5.512,0,10.261,3.326,12.345,8.078
	c2.415-2.291,5.676-3.696,9.259-3.696c7.429,0,13.473,6.043,13.473,13.47v50.619c0,0.227-0.028,0.452-0.085,0.67
	c-4.023,15.581-19.315,27.524-24.586,31.25V216.807z"/>
<path class="st0" d="M182.863,81.232c3.413-2.978,7.466-4.388,7.466-4.388c0.751-0.458,1.222-2.119,0.351-3.168
	c-0.871-1.048-2.419-1.221-3.621-0.569c0,0-2.974,1.018-5.228,3.217C181.271,76.87,182.226,81.788,182.863,81.232z"/>
<path class="st0" d="M197.945,100.854c1.91-0.43,2.637-1.161,2.748-2.519c0.111-1.358-1.461-2.557-2.121-2.38
	c0,0-7.954,1.233-14.085,0.813c-1.338-0.092-2.026,4.605,0.266,4.709C189.539,101.693,197.945,100.854,197.945,100.854z"/>
<g>
</g>
<g>
</g>
<g>
</g>
<g>
</g>
<g>
</g>
<g>
</g>
</svg>
