<?xml version="1.0" encoding="utf-8"?>
<!-- Generator: Adobe Illustrator 23.0.6, SVG Export Plug-In . SVG Version: 6.00 Build 0)  -->
<svg version="1.1" id="Layer_1" xmlns="http://www.w3.org/2000/svg" xmlns:xlink="http://www.w3.org/1999/xlink" x="0px" y="0px"
	 viewBox="0 0 250 250" style="enable-background:new 0 0 250 250;" xml:space="preserve">
<style type="text/css">
	.st0{fill:#FBEFAB;}
</style>
<path class="st0" d="M85.203,177.315c9.439,9.161,19.2,18.632,29.136,29.015l7.183,7.505c0.985,1.029,2.628,1.029,3.613-0.001
	l7.178-7.505c9.889-10.331,19.664-19.814,29.123-28.99c18.229-17.675,33.971-32.94,43.123-47.163
	c12.991-19.297,15.081-40.46,5.734-58.061c-8.891-16.742-26.621-27.142-46.273-27.142c-14.459,0-28.515,5.57-40.675,16.113
	c-12.164-10.549-26.228-16.123-40.688-16.123c-19.648,0-37.376,10.4-46.264,27.139c-9.354,17.607-7.287,38.737,5.601,57.871
	C51.288,144.411,66.961,159.616,85.203,177.315z M41.317,76.334c7.365-13.965,19.641-24.286,36.042-25.625
	c10.208-0.833,21.667-0.625,36.458,10.625l7.907,5.558c0.877,0.617,2.05,0.605,2.915-0.029l8.969-6.571
	c9.167-5.833,20.417-10.833,34.375-10.208c13.743,0.615,31.25,12.083,38.125,26.25c7.298,15.038,6.259,31.878-5.118,48.897
	c-9.185,14.37-25.753,30.549-44.949,49.289c-8.568,8.369-25.435,25.121-30.952,30.604c-0.991,0.985-2.574,0.966-3.542-0.042
	c-5.314-5.534-21.432-22.27-30.055-30.696c-19.1-18.659-35.595-34.773-44.935-49.379C35.294,108.169,33.513,91.124,41.317,76.334z"
	/>
<g>
</g>
<g>
</g>
<g>
</g>
<g>
</g>
<g>
</g>
<g>
</g>
</svg>
