<?xml version="1.0" encoding="utf-8"?>
<!-- Generator: Adobe Illustrator 23.1.1, SVG Export Plug-In . SVG Version: 6.00 Build 0)  -->
<svg version="1.1" id="Layer_1" xmlns="http://www.w3.org/2000/svg" xmlns:xlink="http://www.w3.org/1999/xlink" x="0px" y="0px"
	 viewBox="0 0 250 250" style="enable-background:new 0 0 250 250;" xml:space="preserve">
<style type="text/css">
	.st0{fill:#2B2B2B;}
</style>
<path class="st0" d="M85.2,177.3c9.4,9.2,19.2,18.6,29.1,29l7.2,7.5c1,1,2.6,1,3.6,0l7.2-7.5c9.9-10.3,19.7-19.8,29.1-29
	c18.2-17.7,34-32.9,43.1-47.2c13-19.3,15.1-40.5,5.7-58.1C201.4,55.4,183.7,45,164,45c-14.5,0-28.5,5.6-40.7,16.1
	C111.2,50.5,97.1,45,82.7,45C63,45,45.3,55.4,36.4,72.1C27,89.7,29.1,110.8,42,130C51.3,144.4,67,159.6,85.2,177.3z M41.3,76.3
	c7.4-14,19.6-24.3,36-25.6c10.2-0.8,21.7-0.6,36.5,10.6l7.9,5.6c0.9,0.6,2.1,0.6,2.9,0l9-6.6c9.2-5.8,20.4-10.8,34.4-10.2
	c13.7,0.6,31.2,12.1,38.1,26.2c7.3,15,6.3,31.9-5.1,48.9c-9.2,14.4-25.8,30.5-44.9,49.3c-8.6,8.4-25.4,25.1-31,30.6
	c-1,1-2.6,1-3.5,0c-5.3-5.5-21.4-22.3-30.1-30.7c-19.1-18.7-35.6-34.8-44.9-49.4C35.3,108.2,33.5,91.1,41.3,76.3z"/>
</svg>
