<?xml version="1.0" encoding="utf-8"?>
<!-- Generator: Adobe Illustrator 23.1.1, SVG Export Plug-In . SVG Version: 6.00 Build 0)  -->
<svg version="1.1" id="Layer_1" xmlns="http://www.w3.org/2000/svg" xmlns:xlink="http://www.w3.org/1999/xlink" x="0px" y="0px"
	 viewBox="0 0 250 250" style="enable-background:new 0 0 250 250;" xml:space="preserve">
<style type="text/css">
	.st0{fill:#2B2B2B;}
</style>
<path class="st0" d="M51.6,149H27.2c-1.4,0-2.6-1.2-2.6-2.6v-43.1c0-1.4,1.2-2.6,2.6-2.6h24.5c1.4,0,2.6,1.2,2.6,2.6v43.1
	C54.2,147.8,53.1,149,51.6,149z M29.8,143.7H49v-37.9H29.8V143.7z"/>
<path class="st0" d="M175.4,192.1c-0.3,0-0.6,0-0.9-0.1L50.8,148.8c-1-0.4-1.8-1.4-1.8-2.5v-43.1c0-1.1,0.7-2.1,1.8-2.5l123.8-41.1
	c0.8-0.3,1.7-0.1,2.4,0.4c0.7,0.5,1.1,1.3,1.1,2.1v127.4c0,0.8-0.4,1.6-1.1,2.1C176.5,191.9,175.9,192.1,175.4,192.1z M54.2,144.5
	l118.5,41.3V65.7L54.2,105.1V144.5z"/>
<path class="st0" d="M116.8,192.2c-1,0-2-0.2-3-0.5l-37.6-13.1c-4.8-1.7-8.5-6.9-8.5-12v-13.8h5.2v13.8c0,2.8,2.3,6.1,5,7l37.6,13.1
	c1,0.3,1.8,0.3,2.4-0.1c0.6-0.4,0.9-1.2,0.9-2.2v-13.8h5.2v13.8c0,2.7-1.1,5.1-3.1,6.5C119.8,191.8,118.3,192.2,116.8,192.2z"/>
<path class="st0" d="M185,200.1c-6.8,0-12.3-5.5-12.3-12.3V63.7c0-6.8,5.5-12.3,12.3-12.3s12.3,5.5,12.3,12.3v124.1
	C197.3,194.6,191.8,200.1,185,200.1z M185,56.7c-3.9,0-7,3.2-7,7v124.1c0,3.9,3.2,7,7,7c3.9,0,7-3.2,7-7V63.7
	C192.1,59.9,188.9,56.7,185,56.7z"/>
<path class="st0" d="M236.7,128.4h-20.5c-1.4,0-2.5-1.1-2.5-2.5v-0.2c0-1.4,1.1-2.5,2.5-2.5h20.5c1.4,0,2.5,1.1,2.5,2.5v0.2
	C239.2,127.3,238.1,128.4,236.7,128.4z"/>
<path class="st0" d="M208.4,100.9l-0.2-0.2c-1-1-1-2.6,0-3.5l14.5-14.5c1-1,2.6-1,3.5,0l0.2,0.2c1,1,1,2.6,0,3.5l-14.5,14.5
	C210.9,101.9,209.3,101.9,208.4,100.9z"/>
<path class="st0" d="M222.7,168.8l-14.5-14.5c-1-1-1-2.6,0-3.5l0.2-0.2c1-1,2.6-1,3.5,0l14.5,14.5c1,1,1,2.6,0,3.5l-0.2,0.2
	C225.2,169.8,223.7,169.8,222.7,168.8z"/>
</svg>
