<?xml version="1.0" encoding="utf-8"?>
<!-- Generator: Adobe Illustrator 23.1.1, SVG Export Plug-In . SVG Version: 6.00 Build 0)  -->
<svg version="1.1" id="Layer_1" xmlns="http://www.w3.org/2000/svg" xmlns:xlink="http://www.w3.org/1999/xlink" x="0px" y="0px"
	 viewBox="0 0 250 250" style="enable-background:new 0 0 250 250;" xml:space="preserve">
<style type="text/css">
	.st0{fill:#2B2B2B;}
</style>
<path class="st0" d="M222.7,137.1c0-24.5-20-44.5-44.5-44.5c-24.5,0-44.5,19.9-44.5,44.5c0,24,30,59.3,39.8,70.3H68.8
	c-10.2,0-18.5-8.6-18.5-18.8s8.3-18.6,18.5-18.6l38-0.4c10.5,0,19-8.1,19-18.6c0-10.5-8.5-18.6-19-18.6H90.9c-5.1,0-9.2-4.3-9.9-9.2
	c3.7-3.9,32.1-35.3,32.1-55.7c0-18.8-15.3-34.2-34.1-34.2c-18.8,0-34.1,15.3-34.1,34.1c0,19.5,25.8,49.3,31.4,55.3
	c0.3,7.8,6.7,14.7,14.6,14.7h15.9c7.9,0,14.3,5.8,14.3,13.8c0,7.9-6.4,14-14.3,14l-38,0.2c-12.7,0-23.1,10.8-23.1,23.5
	s10.4,23.5,23.1,23.5h110v-1.1c0.4-0.1,0.8-0.3,1.1-0.6C181.7,208.9,222.7,165.2,222.7,137.1z M78.9,118.1
	c-6.5-7.2-29.4-34-29.4-50.8c0-16.2,13.2-29.4,29.4-29.4c16.2,0,29.4,13.2,29.4,29.4C108.4,84.2,85.4,110.9,78.9,118.1z M178.2,97.4
	c21.9,0,39.8,17.9,39.8,39.8c0,23.1-32,59.9-39.8,68.5c-7.8-8.6-39.8-45.4-39.8-68.5C138.4,115.2,156.3,97.4,178.2,97.4z"/>
<path class="st0" d="M201.1,137.1c0-12.7-10.3-23-23-23c-12.7,0-23,10.3-23,23c0,12.7,10.3,23,23,23S201.1,149.8,201.1,137.1z
	 M178.2,155.4c-10.1,0-18.3-8.2-18.3-18.3c0-10.1,8.2-18.3,18.3-18.3s18.3,8.2,18.3,18.3C196.4,147.2,188.2,155.4,178.2,155.4z"/>
<path class="st0" d="M78.9,51.5c-8.7,0-15.8,7.1-15.8,15.8c0,8.7,7.1,15.8,15.8,15.8c8.7,0,15.8-7.1,15.8-15.8
	C94.7,58.6,87.6,51.5,78.9,51.5z M78.9,78.4c-6.1,0-11.1-5-11.1-11.1c0-6.1,5-11.1,11.1-11.1c6.1,0,11.1,5,11.1,11.1
	C90,73.4,85,78.4,78.9,78.4z"/>
</svg>
