<?xml version="1.0" encoding="utf-8"?>
<!-- Generator: Adobe Illustrator 23.1.1, SVG Export Plug-In . SVG Version: 6.00 Build 0)  -->
<svg version="1.1" id="Layer_1" xmlns="http://www.w3.org/2000/svg" xmlns:xlink="http://www.w3.org/1999/xlink" x="0px" y="0px"
	 viewBox="0 0 250 250" style="enable-background:new 0 0 250 250;" xml:space="preserve">
<style type="text/css">
	.st0{fill:#2B2B2B;}
</style>
<path class="st0" d="M163.9,186c-0.7,0-1.3-0.3-1.8-0.7l-21-21c-0.1-0.1-0.2-0.2-0.3-0.3c-0.5-0.5-0.8-1.3-0.7-2.1
	c0.1-0.7,0.4-1.4,1-1.9c3.4-2.3,6.6-5,9.4-7.8c2.8-2.8,5.4-5.9,7.7-9.2c0.4-0.6,1.1-1,1.8-1.1c0.7-0.1,1.5,0.2,2,0.6
	c0.2,0.2,0.3,0.3,0.4,0.4l21,21c1,1,1,2.6,0,3.6l-17.7,17.7C165.2,185.8,164.6,186,163.9,186z M146.5,162.5l17.4,17.5l14.1-14.1
	l-17.4-17.4c-2,2.7-4.2,5.2-6.5,7.5C151.8,158.2,149.2,160.4,146.5,162.5z"/>
<path class="st0" d="M203.3,220.2L203.3,220.2c-4,0-7.8-1.6-10.7-4.4l-30.5-30.5c-1-1-1-2.6,0-3.6l17.7-17.7c1-1,2.6-1,3.6,0
	l30.5,30.5c2.9,2.8,4.4,6.6,4.4,10.7c0,4-1.6,7.8-4.4,10.7C211.1,218.6,207.3,220.2,203.3,220.2z M167.5,183.5l28.7,28.7
	c1.9,1.9,4.4,2.9,7.1,2.9c2.7,0,5.2-1,7.1-2.9c1.9-1.9,2.9-4.4,2.9-7.1c0-2.7-1-5.2-2.9-7.1l-28.7-28.7L167.5,183.5z"/>
<path class="st0" d="M103.4,176.8L103.4,176.8c-19.2,0-37.2-7.5-50.8-21c-13.6-13.6-21-31.6-21-50.8c0-19.2,7.5-37.2,21-50.8
	c13.6-13.6,31.6-21,50.7-21c19.2,0,37.2,7.5,50.8,21c28,28,28,73.5,0,101.5C140.6,169.4,122.6,176.8,103.4,176.8z M103.4,38.3
	c-17.8,0-34.6,6.9-47.2,19.5S36.7,87.2,36.7,105c0,17.8,6.9,34.6,19.5,47.2c12.6,12.6,29.3,19.5,47.2,19.5h0
	c17.8,0,34.6-6.9,47.2-19.5c26-26,26-68.3,0-94.3C137.9,45.3,121.2,38.3,103.4,38.3z"/>
<path class="st0" d="M103.6,159c-29.7,0-53.8-24.1-53.8-53.8S74,51.4,103.6,51.4c29.7,0,53.8,24.1,53.8,53.8
	C157.4,134.8,133.3,159,103.6,159z M103.6,56.5C76.8,56.5,55,78.3,55,105.2c0,26.8,21.8,48.7,48.7,48.7c26.8,0,48.7-21.8,48.7-48.7
	C152.3,78.3,130.5,56.5,103.6,56.5z"/>
</svg>
