<?xml version="1.0" encoding="utf-8"?>
<!-- Generator: Adobe Illustrator 23.0.6, SVG Export Plug-In . SVG Version: 6.00 Build 0)  -->
<svg version="1.1" id="Layer_1" xmlns="http://www.w3.org/2000/svg" xmlns:xlink="http://www.w3.org/1999/xlink" x="0px" y="0px"
	 viewBox="0 0 250 250" style="enable-background:new 0 0 250 250;" xml:space="preserve">
<style type="text/css">
	.st0{fill:#FBEFAB;}
</style>
<path class="st0" d="M163.906,186.038c-0.673,0-1.32-0.268-1.797-0.745l-21.023-21.025c-0.107-0.108-0.208-0.22-0.308-0.334
	c-0.503-0.541-0.783-1.317-0.702-2.05c0.081-0.735,0.44-1.439,1.049-1.858c3.398-2.335,6.568-4.965,9.42-7.816
	c2.788-2.789,5.369-5.888,7.672-9.21c0.417-0.601,1.072-0.994,1.8-1.077c0.726-0.075,1.456,0.152,1.997,0.644
	c0.189,0.166,0.288,0.256,0.387,0.353l21.04,21.036c0.993,0.993,0.993,2.601,0,3.593l-17.739,17.742
	C165.227,185.77,164.58,186.038,163.906,186.038z M146.463,162.451l17.443,17.451l14.146-14.147l-17.423-17.42
	c-2.007,2.657-4.181,5.16-6.489,7.47C151.768,158.176,149.195,160.403,146.463,162.451z"/>
<path class="st0" d="M203.252,220.186L203.252,220.186c-4.03,0-7.819-1.57-10.668-4.421l-30.475-30.472
	c-0.993-0.993-0.993-2.601,0-3.593l17.739-17.742c0.953-0.953,2.641-0.953,3.593,0l30.473,30.478
	c2.851,2.849,4.421,6.639,4.421,10.67c0,4.029-1.57,7.815-4.421,10.661C211.07,218.616,207.281,220.186,203.252,220.186z
	 M167.5,183.497l28.68,28.675c1.889,1.891,4.401,2.932,7.073,2.932c2.67,0,5.182-1.041,7.069-2.932
	c1.891-1.888,2.932-4.396,2.932-7.066c0-2.674-1.041-5.185-2.932-7.076l-28.676-28.682L167.5,183.497z"/>
<path class="st0" d="M103.388,176.826h-0.005c-19.178-0.002-37.207-7.468-50.762-21.025C39.066,142.248,31.6,124.223,31.6,105.049
	c-0.002-19.177,7.465-37.205,21.023-50.761c13.557-13.556,31.579-21.021,50.749-21.021c19.175,0,37.204,7.466,50.764,21.024
	c27.987,27.994,27.99,73.533,0.005,101.514C140.585,169.362,122.56,176.826,103.388,176.826z M103.372,38.35
	c-17.812,0-34.558,6.936-47.155,19.532C43.62,70.478,36.681,87.23,36.682,105.048c0,17.818,6.937,34.566,19.532,47.16
	c12.595,12.597,29.347,19.536,47.168,19.536h0.005c17.817,0.002,34.563-6.936,47.158-19.532c26.003-26,26-68.315-0.005-94.327
	C137.941,45.288,121.19,38.35,103.372,38.35z"/>
<path class="st0" d="M103.641,158.965c-29.651,0-53.773-24.123-53.773-53.773c0-29.65,24.122-53.773,53.773-53.773
	c29.653,0,53.776,24.123,53.776,53.773C157.418,134.842,133.294,158.965,103.641,158.965z M103.641,56.502
	c-26.848,0-48.69,21.842-48.69,48.691c0,26.848,21.842,48.69,48.69,48.69c26.85,0,48.694-21.842,48.694-48.69
	C152.335,78.344,130.491,56.502,103.641,56.502z"/>
<g>
</g>
<g>
</g>
<g>
</g>
<g>
</g>
<g>
</g>
<g>
</g>
</svg>
