<?xml version="1.0" encoding="utf-8"?>
<!-- Generator: Adobe Illustrator 23.1.1, SVG Export Plug-In . SVG Version: 6.00 Build 0)  -->
<svg version="1.1" id="Layer_1" xmlns="http://www.w3.org/2000/svg" xmlns:xlink="http://www.w3.org/1999/xlink" x="0px" y="0px"
	 viewBox="0 0 250 250" style="enable-background:new 0 0 250 250;" xml:space="preserve">
<style type="text/css">
	.st0{fill:#2B2B2B;}
</style>
<path class="st0" d="M147,87.8h-14.9V75.5c5-3.5,11.3-10.2,11.3-17.9c0-11.2-8.8-20.4-20-20.4c-11.2,0-21.1,9.1-21.1,20.4
	c0,7.7,4.8,14.3,9.8,17.8v12.4h-11.7c-2.2,0-3.9,0.7-3.7,2.8l4.8,68.1c0.1,2,1.8,4,3.7,4h9.4v11.7c-5,3.1-6.8,7.6-6.4,13.1
	c0.3,5.6,2.1,9.4,7.1,12.9l0,14.3c0,0.8,1.2,2.1,1.8,2.6c2.3,2.2,3.5,2.7,6.3,2.7c2.7,0,3.9-0.6,5.9-2.7c0.5-0.5,1.4-1.8,1.4-2.6
	l0.1-14.6c4.4-2.6,6.6-7.3,6.6-12.7c0-5.4-2.8-10.1-7.8-12.6v-12.1h12.1c1.9,0,3.6-2.7,3.7-4.6l5.3-67
	C150.9,89.1,149.2,87.8,147,87.8z M108.7,57.6c0-8.1,6.6-14.8,14.8-14.8c8.1,0,14.8,6.6,14.8,14.8c0,8.1-6.6,14.8-14.8,14.8
	C115.3,72.3,108.7,65.7,108.7,57.6z M117.2,77.5c2.5,0.3,3.6,0.4,5.1,0.4c1.4,0,2.4-0.1,4.9-0.4v10.3h-10V77.5z M124.7,212.3
	c0,0-0.4,2.3-2.4,2.3c-1.8,0-2.6-2.5-2.6-2.5v-10.2c0,0.1,2.5,0.4,3.1,0.4c0.6,0,1.9-0.1,1.9-0.1V212.3z M123.4,196.6
	c-5,0-9.1-4.1-9.1-9.1c0-5,4.1-9.1,9.1-9.1c5,0,9.1,4.1,9.1,9.1C132.5,192.6,128.4,196.6,123.4,196.6z M124.7,172.9
	c-2.5-0.1-2.2-0.1-2.8-0.1c-0.4,0-2.2,0-2.2,0.1v-10.1h5V172.9z M145.5,96.3l-4,56.8c-0.1,2-0.6,4.6-2.6,4.6h-30.2
	c-2,0-2.8-3.4-2.9-5.3l-3.6-56.2c-0.1-2.1,0.1-2.5,2.2-2.6l38.6-0.2C145.4,93.5,145.7,94.2,145.5,96.3z"/>
<path class="st0" d="M133.6,118.2c0.1-1.8,1.4-3.2,2.8-3.1c1.5,0.1,2.6,1.6,2.4,3.4l-1.7,29.3c-0.1,1.8-1.4,3.2-2.8,3.1
	c-1.5-0.1-2.6-1.6-2.4-3.4"/>
</svg>
